<svg id="Capa_1" enable-background="new 0 0 511.982 511.982" height="512" viewBox="0 0 511.982 511.982" width="512" xmlns="http://www.w3.org/2000/svg"><g><g><path d="m223.69 37.97c-.003-.001-35.277-7.468-51.915-10.99-3.296-.698-7.395 3.401-6.697 6.697 3.522 16.638 10.989 51.912 10.99 51.915 9.801 29.825 47.556 41.724 68.451 20.829 20.876-20.876 9.032-58.637-20.829-68.451z" fill="#09a76d"/><path d="m223.69 37.97c-.003-.001-35.277-7.468-51.915-10.99-2.803-.593-6.176 2.283-6.696 5.183 14.121 2.989 27.427 5.806 27.429 5.807 29.861 9.813 41.705 47.575 20.829 68.451-3.213 3.212-6.826 5.643-10.673 7.359 14.132 5.652 30.486 4.009 41.854-7.359 20.877-20.876 9.033-58.637-20.828-68.451z" fill="#02905d"/><path d="m238.378 170.177s-13.676-102.573 51.283-160.909c2.752-2.472 6.96-2.371 9.657.161l19.047 17.882c2.758 2.59 3.038 6.866.636 9.789-14.094 17.155-57.497 74.892-55.49 133.077 2.392 69.412-25.133 0-25.133 0z" fill="#c86d36"/><path d="m318.364 27.311-19.046-17.882c-2.697-2.532-6.905-2.632-9.657-.161-2.761 2.479-5.369 5.045-7.853 7.673l11.045 10.37c2.758 2.59 3.037 6.866.636 9.789-13.749 16.735-55.382 72.09-55.55 128.806.238 2.752.439 4.271.439 4.271s27.526 69.412 25.132 0c-2.006-58.185 41.397-115.921 55.49-133.077 2.402-2.923 2.122-7.199-.636-9.789z" fill="#ac5e2e"/><path d="m410.178 131.082v-.479s-53.849-41.606-153.8 0c-99.951-41.606-153.8 0-153.8 0v.009c-52.296 31.736-82.111 107.929-69.767 192.994 15.568 107.28 92.289 188.031 171.361 180.361 19.065-1.85 36.52-8.683 51.824-19.474 15.304 10.792 32.759 17.625 51.824 19.474 79.072 7.669 155.793-73.081 171.361-180.361 12.286-84.65-17.181-160.512-69.003-192.524z" fill="#ca2c2c"/><g><path d="m410.178 131.082v-.479s-31.046-23.972-89.732-17.314c32.898 4.069 50.047 17.314 50.047 17.314v.479c51.822 32.012 81.289 107.874 69.004 192.523-13.558 93.426-73.495 166.721-140.973 179.031 3.055.572 6.152 1.025 9.297 1.331 79.072 7.669 155.793-73.081 171.361-180.361 12.285-84.65-17.182-160.512-69.004-192.524z" fill="#a72b2b"/></g></g><g><path d="m405.112 458.488c-41.926 39.721-98.353 52.626-144.792 19.875-2.592-1.826-6.053-1.826-8.645 0-17.7 12.483-37.438 18.608-57.933 18.608-78.456 0-121.879-83.734-122.879-84.734-15.393-26.675-25.984-57.695-30.63-89.708-4.729-32.598-3.426-66.354 5.395-97.812 1.118-3.988-1.208-8.128-5.197-9.246-3.99-1.118-8.128 1.208-9.246 5.197-9.345 33.332-10.853 69.16-5.795 104.015 15.07 103.87 87.173 187.288 168.353 187.288 22.087 0 43.258-6.192 62.255-18.434 15.689 10.11 32.855 16.125 51.1 17.895 40.632 3.938 78.303-13.606 108.331-42.056 3.007-2.849 3.135-7.596.286-10.603-2.85-3.007-7.597-3.135-10.603-.285z"/><path d="m416.021 125.901c-2.973-3.696-50.836-36.75-134.098-12.316 12.937-33.197 33.729-60.593 42.872-71.724 4.889-5.95 4.319-14.743-1.297-20.018l-19.045-17.881c-5.511-5.175-14.207-5.296-19.804-.274-14.774 13.268-25.641 28.675-33.623 44.617-6.394-8.069-15.011-14.179-24.964-17.45-.418-.139-.418-.139-52.732-11.211-4.045-.856-8.415.596-11.704 3.884-3.288 3.288-4.74 7.663-3.885 11.702 11.564 54.636 10.988 52.05 11.202 52.704 2.027 6.168 5.179 11.839 9.197 16.791-63.275-2.141-108.55 29.606-134.118 81.983-1.816 3.723-.272 8.213 3.45 10.03 3.728 1.817 8.214.271 10.03-3.45 22.856-46.823 61.49-73.678 114.581-73.678 20.476 0 42.201 3.906 64.775 11.614 25.32 8.649 14.19 9.017 33.859 1.833 24.435-8.922 47.92-13.447 69.959-13.447 36.144 0 57.922 12.36 63.492 15.957.556.745 1.254 1.392 2.069 1.896 50.083 30.938 77.192 104.646 65.524 185.065-6.003 41.362-21.353 79.649-44.391 110.723-2.467 3.327-1.77 8.024 1.558 10.491 3.323 2.465 8.024 1.772 10.491-1.558 24.512-33.061 40.828-73.692 47.186-117.502 12.229-84.271-15.716-163.467-70.584-198.781zm-121.624-110.805 18.616 17.478c-10.768 13.139-36.197 46.913-49.155 87.02-1 .372-4.636 1.755-7.479 2.903-3.083-1.245-6.721-2.645-10.067-3.854 4.536-38.928 18.77-77.063 48.085-103.547zm-72.679 30.123c9.691 3.295 17.593 10.334 22.071 19.574-4.902 12.922-8.592 27.286-10.834 41.04-17.165 9.529-42.268-.552-49.639-22.213-.8-3.777-6.86-32.407-10.312-48.713 16.311 3.453 44.951 9.515 48.714 10.312z"/></g></g></svg>