<svg height="512" viewBox="0 0 61 50" width="512" xmlns="http://www.w3.org/2000/svg"><g id="Page-1" fill="none" fill-rule="evenodd"><g id="006---Watermelon" fill-rule="nonzero"><path id="Shape" d="m53.72 37.83c-9.6981535 12.2706023-27.3796621 14.6400959-39.9663701 5.355881-12.586708-9.2842148-15.54361049-26.8770251-6.6836299-39.765881.15636885-.22113515.39574632-.36938761.66338892-.41085336.2676426-.04146576.54065838.02740183.75661108.19085336l2.4 1.77c-5.34210335 7.184352-6.4335477 16.6772847-2.86131723 24.886557 3.57223043 8.2092723 11.26246693 13.8808934 20.16063043 14.8686529 8.8981634.9877594 17.645033-2.8592258 22.9306868-10.0852099l2.4 1.77c.218035.1594311.3623026.4002835.399974.6677501.0376714.2674667-.0344577.5387975-.199974.7522499z" fill="#60a917"/><path id="Shape" d="m53.52 36.41-2.4-1.77c-.356.482-.731.942-1.114 1.391l.514.379c.218035.1594311.3623026.4002835.399974.6677501.0376714.2674667-.0344577.5387975-.199974.7522499-5.1859619 6.5458231-12.9465819 10.5325829-21.288 10.936 9.3909631.512034 18.4463542-3.5652781 24.288-10.936.1655163-.2134524.2376454-.4847832.199974-.7522499-.0376714-.2674666-.181939-.508319-.399974-.6677501z" fill="#549414"/><path id="Shape" d="m51.12 34.64c-5.2856538 7.2259841-14.0325234 11.0729693-22.9306868 10.0852099-8.8981635-.9877595-16.5884-6.6593806-20.16063043-14.8686529-3.57223047-8.2092723-2.48078612-17.702205 2.86131723-24.886557l11.13 8.21 26.63 19.64z" fill="#ef314c"/><path id="Shape" d="m22.075 35.276c-.6437233.9814686-1.9585475 1.2600595-2.945.624-.9010085-.7543806-1.0234406-2.0948784-.274-3 .738-1 2.947-2.487 3.835-1.831s.122 3.207-.616 4.207z" fill="#37474f"/><path id="Shape" d="m31.007 37.667c.004566.7763638-.4375241 1.4862229-1.1363051 1.8245522-.698781.3383294-1.5298107.2448777-2.1359973-.2401989-.6061866-.4850767-.8795777-1.2753936-.7026976-2.0313533.139-1.235 1.309-3.627 2.406-3.5s1.708 2.712 1.569 3.947z" fill="#37474f"/><path id="Shape" d="m39.937 35.271c.3941063.6701194.3673359 1.5072293-.0687816 2.1507985-.4361176.6435691-1.2036982.9786657-1.9721558.8609684s-1.4005573-.6671696-1.6240626-1.4117669c-.5-1.139-.68-3.8.332-4.237s2.836 1.498 3.333 2.637z" fill="#37474f"/><path id="Shape" d="m13.586 15.834c-1.1577509-.1952213-2.2560256.5805832-2.459 1.737-.0579193 1.1723877.8410487 2.1718364 2.013 2.238 1.234.139 3.826-.471 3.949-1.568s-2.268-2.268-3.503-2.407z" fill="#37474f"/><path id="Shape" d="m13.935 25.074c-.7433008.2245881-1.2912861.8564779-1.4084294 1.6240803-.1171433.7676023.2174232 1.5341777.8599012 1.9702486.6424781.436071 1.4784177.4639564 2.1485282.0716711 1.139-.5 3.079-2.321 2.637-3.334s-3.099-.829-4.237-.332z" fill="#37474f"/><path id="Shape" d="m59.69 22.11c-11.0187702 10.5242621-28.3665762 10.5198568-39.38-.01-.4056015-.3950247-.414552-1.0439387-.02-1.45l2.1-2.14c4.6095643 4.7761269 10.9622691 7.4737821 17.6 7.4737821s12.9904357-2.6976552 17.6-7.4737821l2.11 2.14c.1931224.1944943.3006695.4579991.2987922.7320808s-.1130237.5360885-.3087922.7279192z" fill="#60a917"/><path id="Shape" d="m57.59 18.51c-4.6095643 4.7761269-10.9622691 7.4737821-17.6 7.4737821s-12.9904357-2.6976552-17.6-7.4737821l16.91-17.21c.1843911-.191781.4389549-.30016595.705-.30016595s.5206089.10838495.705.30016595z" fill="#ef314c"/><path id="Shape" d="m40.71 1.3c-.1843911-.191781-.4389549-.30016595-.705-.30016595s-.5206089.10838495-.705.30016595l-.8.81 16.09 16.4c-4.2534963 4.389158-9.9902072 7.0353898-16.09 7.422 7.1415988.4308071 14.1149169-2.2803489 19.09-7.422z" fill="#bb193b"/><path id="Shape" d="m33.5 17.449c-.369077 1.1240816.2280551 2.3370061 1.344 2.73.5550776.1107646 1.1314141-.0040679 1.6016493-.3191217.4702351-.3150538.7956561-.8043916.9043507-1.3598783.32-1.217.1-3.91-.958-4.2s-2.571 1.931-2.892 3.149z" fill="#37474f"/><path id="Shape" d="m42.653 18.5c.108289.5545429.4326708 1.0432545.9016359 1.358399s1.044009.430847 1.5983641.321601c1.1159618-.3930161 1.7134069-1.6056741 1.345-2.73-.321-1.218-1.829-3.44-2.891-3.15s-1.274 2.982-.954 4.2z" fill="#37474f"/><g fill="#000"><path id="Shape" d="m13.2 43.945c12.981536 9.6588467 31.2937932 7.2237156 41.3-5.492.3377886-.4220314.4864882-.9647308.411-1.5-.0724051-.5407391-.3610856-1.02897-.8-1.353l-4.869-3.59c-.2875988-.2120371-.6664715-.2545354-.9939005-.1114861-.3274289.1430493-.5536698.4499136-.5935.805-.0398301.3550865.1128017.704449.4004005.9164861l4.879 3.584c-9.4084173 11.6787403-26.3479918 13.8709041-38.4193934 4.9718842-12.07140161-8.8990199-14.98786153-25.7290237-6.6146066-38.1708842l13.53 9.98c.4445892.327781 1.070719.2330892 1.3985-.2115s.2330892-1.070719-.2115-1.3985l-13.523-9.975c-.43397046-.3286288-.98314581-.4661659-1.52078106-.38086891-.53763526.085297-1.01727373.38605763-1.32821894.83286891-9.1961367 13.3201079-6.1122505 31.5409757 6.955 41.093z"/><path id="Shape" d="m9.654 8.831c.17887533-.31901356.16932425-.71023116-.0249053-1.02013585-.19422956-.30990468-.5421495-.4890531-.9072332-.46714596-.36508371.02190714-.68908437.24137469-.8448615.57228181-5.86052916 11.3457909-2.61182668 25.2681602 7.6649796 32.8483994 10.2768063 7.5802392 24.5376608 6.573033 33.6470204-2.3763994.3946075-.3865993.4010993-1.0198925.0145-1.4145s-1.0198925-.4010993-1.4145-.0145c-8.4128733 8.2431216-21.5641676 9.1632067-31.0428719 2.1718079-9.4787042-6.9913987-12.48328009-19.8278944-7.0921281-30.2998079z"/><path id="Shape" d="m23.285 30.267c-.513-.379-1.459-.649-3.049.222-.8412151.4558096-1.5835654 1.074095-2.184 1.819-.4979476.663295-.7346302 1.4865233-.665 2.313.0633812.8282069.4824724 1.588334 1.149 2.084.4896545.3589725 1.0818685.5507671 1.689.547 1.0537533-.0148779 2.0383512-.527388 2.655-1.382.776-1.053 2.077-4.37.405-5.603zm-2.014 4.416c-.3197367.5326404-1.0046978.7150605-1.547.412-.2028757-.159805-.3282957-.3982848-.345-.656-.024691-.3385738.0756438-.6744466.282-.944.6251477-.761734 1.4670004-1.3155294 2.414-1.588.0195092.9854285-.2608759 1.9535243-.804 2.776z"/><path id="Shape" d="m28.655 40.673c.8263146.0933823 1.6521053-.1795672 2.26-.747.6126448-.5584521.9987714-1.3225202 1.085-2.147.145-1.3-.387-4.823-2.45-5.056-.648-.074-1.592.17-2.53 1.717-.5008658.8155824-.8349798 1.7224148-.983 2.668-.0995992.8232689.1072058 1.6544042.581 2.335.4686681.6858224 1.2118364 1.1345691 2.037 1.23zm.667-5.924c.5098741.8434864.7508913 1.8222043.691 2.806-.0311611.3379021-.1860819.6523734-.435.883-.184712.1828592-.4413671.2737885-.7.248-.2559764-.0384543-.4835537-.1838711-.626-.4-.1907032-.2806399-.271501-.6216281-.227-.958.1615703-.9710502.6138008-1.8702812 1.297-2.579z"/><path id="Shape" d="m37.025 39c.3925576.1840783.8204325.2806402 1.254.283.3875987-.0001106.7709773-.0804635 1.126-.236 1.5499444-.7575816 2.1972836-2.6245454 1.449-4.179-.523-1.2-2.735-3.983-4.651-3.153s-1.371 4.355-.849 5.553c.3258703.7626393.9205296 1.3790067 1.671 1.732zm0-5.417c.8625319.4762917 1.5599998 1.203402 2 2.085.3026557.5432198.1177735 1.2286585-.417 1.546-.2397102.0951729-.508473.0846403-.74-.029-.305377-.1478776-.5459023-.4026352-.676-.716-.3483373-.9213283-.4083232-1.9267908-.172-2.883z"/><path id="Shape" d="m13.485 20.826c1.522 0 4.389-.618 4.6-2.474.231-2.064-3.087-3.365-4.387-3.511-.8228976-.0986841-1.6533982.1080515-2.334.581-.6853315.4691319-1.13393 1.2120548-1.23 2.037-.119151 1.7230792 1.1773983 3.2181346 2.9 3.344.1497936.0159848.3003574.0236632.451.023zm-1.364-3.144c.0375981-.2562966.1832208-.4841961.4-.626.2296342-.1586.5029453-.2417816.782-.238.058 0 .116 0 .176.01.9728598.1615195 1.8736613.6148845 2.583 1.3-.8439011.5088719-1.8223025.7498111-2.806.691-.6246792-.007046-1.1290538-.5123094-1.135-1.137z"/><path id="Shape" d="m13.534 24.158c-.7616725.3264576-1.3774386.9205243-1.731 1.67-.3618723.7483454-.3787389 1.6174399-.0461745 2.3792623.3325644.7618223.9813636 1.3403285 1.7761745 1.5837377.327262.1056989.6690922.1593524 1.013.159.4786607-.000996.9519296-.1010975 1.39-.294 1.2-.523 3.983-2.745 3.152-4.65s-4.357-1.372-5.554-.848zm1.6 3.665c-.3088471.1403749-.6581596.1638282-.983.066-.2514519-.0659682-.4588221-.2435015-.5627534-.4817831-.1039314-.2382816-.0929675-.5110457.0297534-.7402169.1475714-.3056013.4024288-.5462209.716-.676.5971734-.2210663 1.2303152-.3289073 1.867-.318.3461927-.0185298.6926067.0321234 1.019.149-.4763337.8627475-1.2034048 1.5605265-2.085 2.001z"/><path id="Shape" d="m41.42.6c-.3725151-.38409616-.8849327-.60061067-1.42-.6-.5341892-.0006025-1.0456735.21597516-1.417.6l-19 19.354c-.3797166.3880102-.589473.9111421-.583 1.454.0066158.5368121.2298429 1.0481788.619 1.418 11.4159355 10.8597541 29.3413352 10.8628325 40.761.007.3897344-.3703342.6133198-.8824168.62-1.42.0092142-.5465261-.199897-1.074163-.581-1.466zm-20.412 20.753 18.983-19.353 19.009 19.383c-10.6447034 10.1254473-27.3633008 10.1122456-37.992-.03z"/><path id="Shape" d="m24.629 20.562c-.1581773.2132814-.2250331.4807166-.1858269.7433417.0392062.262625.1812547.4988738.3948269.6566583 8.9970601 6.7065164 21.3309399 6.7065164 30.328 0 .4443131-.3283333.5383333-.9546869.21-1.399s-.9546869-.5383333-1.399-.21c-8.2911118 6.1821526-19.6588882 6.1821526-27.95 0-.4438299-.3280558-1.0695194-.2345156-1.398.209z"/><path id="Shape" d="m34.582 21.144c.2367922.0655918.4812924.0992232.727.1.5083323-.0023395 1.0070743-.1385795 1.446-.395.7769675-.4629572 1.3384081-1.2153811 1.561-2.092.336-1.276.333-4.876-1.661-5.42-.529957-.1296533-1.089878-.0371761-1.55.256-1.2331415.8810529-2.1377383 2.1476996-2.571 3.6-.5078219 1.6550206.4028842 3.4119542 2.048 3.951zm-.114-3.444c.3011289-.9458054.8760443-1.7810336 1.652-2.4.3766199.9316939.4681538 1.9542276.263 2.938-.0868385.3610137-.3124803.6732473-.628.869-.1933875.1191364-.4266684.1551922-.647.1-.5761102-.2561921-.8556998-.9145382-.64-1.507z"/><path id="Shape" d="m43.248 20.846c.4384292.2567344.9369363.3930045 1.445.395.2460317-.0008429.4908536-.0344723.728-.1 1.6442326-.5394864 2.5546105-2.2953423 2.048-3.95-.4337316-1.4523401-1.3386492-2.7189433-2.572-3.6-.4595046-.2947477-1.0199577-.3876744-1.55-.257-1.994.545-2 4.144-1.66 5.42.2223899.8767152.7838827 1.6292091 1.561 2.092zm.635-5.539c.7759557.6189664 1.3508711 1.4541946 1.652 2.4.2180482.5938907-.0624313 1.255052-.641 1.511-.2199752.0558431-.4532048.0197395-.646-.1-.3155197-.1957527-.5411615-.5079863-.628-.869-.2059056-.9850555-.1143625-2.0090857.263-2.942z"/></g></g></g></svg>